<svg width="109" height="109" viewBox="0 0 109 109" fill="none" xmlns="http://www.w3.org/2000/svg">
<mask id="mask0_1_149" style="mask-type:alpha" maskUnits="userSpaceOnUse" x="0" y="0" width="109" height="109">
<rect width="108.25" height="108.25" fill="#D9D9D9"/>
</mask>
<g mask="url(#mask0_1_149)">
<path d="M31.573 81.1877H40.5938V72.1668H49.6147V63.146H40.5938V54.1251H31.573V63.146H22.5521V72.1668H31.573V81.1877ZM58.6355 65.4012H85.6981V58.6356H58.6355V65.4012ZM58.6355 78.9325H76.6772V72.1668H58.6355V78.9325ZM18.0417 99.2294C15.561 99.2294 13.4381 98.3469 11.673 96.5818C9.90489 94.8137 9.02084 92.6893 9.02084 90.2085V40.5939C9.02084 38.1131 9.90489 35.9887 11.673 34.2206C13.4381 32.4555 15.561 31.573 18.0417 31.573H40.5938V18.0417C40.5938 15.561 41.4779 13.4366 43.246 11.6685C45.011 9.90341 47.1339 9.02087 49.6147 9.02087H58.6355C61.1163 9.02087 63.2407 9.90341 65.0088 11.6685C66.7738 13.4366 67.6564 15.561 67.6564 18.0417V31.573H90.2085C92.6893 31.573 94.8137 32.4555 96.5818 34.2206C98.3468 35.9887 99.2294 38.1131 99.2294 40.5939V90.2085C99.2294 92.6893 98.3468 94.8137 96.5818 96.5818C94.8137 98.3469 92.6893 99.2294 90.2085 99.2294H18.0417ZM18.0417 90.2085H90.2085V40.5939H67.6564C67.6564 43.0746 66.7738 45.1975 65.0088 46.9626C63.2407 48.7307 61.1163 49.6147 58.6355 49.6147H49.6147C47.1339 49.6147 45.011 48.7307 43.246 46.9626C41.4779 45.1975 40.5938 43.0746 40.5938 40.5939H18.0417V90.2085ZM49.6147 40.5939H58.6355V18.0417H49.6147V40.5939Z" fill="#262626"/>
</g>
</svg>
