<svg width="95" height="90" viewBox="0 0 95 90" fill="none" xmlns="http://www.w3.org/2000/svg">
<path d="M37.5314 37.1251C32.4782 37.1251 28.1524 35.3259 24.554 31.7274C20.9555 28.129 19.1563 23.8032 19.1563 18.75C19.1563 13.6969 20.9555 9.37111 24.554 5.77267C28.1524 2.17422 32.4782 0.375 37.5314 0.375C42.5845 0.375 46.9103 2.17422 50.5087 5.77267C54.1072 9.37111 55.9064 13.6969 55.9064 18.75C55.9064 23.8032 54.1072 28.129 50.5087 31.7274C46.9103 35.3259 42.5845 37.1251 37.5314 37.1251ZM37.5314 27.9376C40.0579 27.9376 42.2216 27.0372 44.0224 25.2364C45.82 23.4387 46.7189 21.2766 46.7189 18.75C46.7189 16.2235 45.82 14.0613 44.0224 12.2636C42.2216 10.4629 40.0579 9.56252 37.5314 9.56252C35.0048 9.56252 32.8427 10.4629 31.045 12.2636C29.2442 14.0613 28.3438 16.2235 28.3438 18.75C28.3438 21.2766 29.2442 23.4387 31.045 25.2364C32.8427 27.0372 35.0048 27.9376 37.5314 27.9376ZM88.5221 89.9533L73.8221 75.2533C72.2143 76.172 70.4916 76.9377 68.6541 77.5502C66.8166 78.1627 64.8642 78.4689 62.797 78.4689C57.0548 78.4689 52.1732 76.4599 48.1521 72.4419C44.1341 68.4208 42.1251 63.5392 42.1251 57.797C42.1251 52.0548 44.1341 47.1732 48.1521 43.1521C52.1732 39.1341 57.0548 37.1251 62.797 37.1251C68.5392 37.1251 73.4209 39.1341 77.442 43.1521C81.46 47.1732 83.469 52.0548 83.469 57.797C83.469 59.8642 83.1627 61.8165 82.5502 63.654C81.9377 65.4915 81.1721 67.2142 80.2533 68.822L94.9534 83.5221L88.5221 89.9533ZM62.797 69.2814C66.0127 69.2814 68.7307 68.1712 70.951 65.9509C73.1713 63.7306 74.2814 61.0126 74.2814 57.797C74.2814 54.5814 73.1713 51.8634 70.951 49.6431C68.7307 47.4228 66.0127 46.3126 62.797 46.3126C59.5814 46.3126 56.8634 47.4228 54.6431 49.6431C52.4228 51.8634 51.3126 54.5814 51.3126 57.797C51.3126 61.0126 52.4228 63.7306 54.6431 65.9509C56.8634 68.1712 59.5814 69.2814 62.797 69.2814ZM0.781281 73.8752V61.1275C0.781281 58.5243 1.43206 56.1126 2.73363 53.8923C4.03519 51.672 5.83442 49.9876 8.1313 48.8392C12.036 46.8485 16.4383 45.1642 21.3384 43.786C26.2384 42.4079 31.6743 41.7188 37.6462 41.7188C36.7275 43.097 35.9435 44.57 35.2942 46.138C34.6419 47.7091 34.1243 49.3368 33.7415 51.0212C29.1478 51.404 25.0516 52.188 21.4532 53.3732C17.8548 54.5615 14.8305 55.8064 12.3805 57.1079C11.6149 57.4907 11.0223 58.0451 10.6027 58.7709C10.1801 59.4998 9.9688 60.2853 9.9688 61.1275V64.6876H33.7415C34.1243 66.372 34.6419 67.9798 35.2942 69.5111C35.9435 71.0423 36.7275 72.497 37.6462 73.8752H0.781281Z" fill="white"/>
</svg>
