<svg width="103" height="86" viewBox="0 0 103 86" fill="none" xmlns="http://www.w3.org/2000/svg">
<path d="M47.1915 22.9401V0.125732H56.3173V22.9401H47.1915ZM77.3065 35.9442L70.9184 29.3281L87.1166 13.1299L93.5046 19.7461L77.3065 35.9442ZM26.2023 35.9442L10.0042 19.7461L16.3922 13.1299L32.5904 29.3281L26.2023 35.9442ZM51.7544 45.7544C60.728 45.7544 69.5678 47.5613 78.2738 51.1751C86.9828 54.7858 94.7214 60.2035 101.49 67.428C102.402 68.3406 102.859 69.4053 102.859 70.622C102.859 71.8388 102.402 72.9035 101.49 73.816L90.9951 84.0825C90.1585 84.919 89.1897 85.3753 88.0885 85.4513C86.9843 85.5274 85.9759 85.2232 85.0633 84.5388L71.831 74.5005C71.2226 74.0442 70.7663 73.5118 70.4622 72.9035C70.158 72.2951 70.0059 71.6106 70.0059 70.8502V57.846C67.1161 56.9334 64.1502 56.211 61.1083 55.6786C58.0664 55.1463 54.9484 54.8801 51.7544 54.8801C48.5604 54.8801 45.4424 55.1463 42.4005 55.6786C39.3586 56.211 36.3927 56.9334 33.5029 57.846V70.8502C33.5029 71.6106 33.3508 72.2951 33.0466 72.9035C32.7425 73.5118 32.2862 74.0442 31.6778 74.5005L18.4455 84.5388C17.5329 85.2232 16.526 85.5274 15.4249 85.4513C14.3206 85.3753 13.3503 84.919 12.5138 84.0825L2.01916 73.816C1.10659 72.9035 0.650299 71.8388 0.650299 70.622C0.650299 69.4053 1.10659 68.3406 2.01916 67.428C8.71136 60.2035 16.4302 54.7858 25.1757 51.1751C33.9212 47.5613 42.7808 45.7544 51.7544 45.7544ZM24.3772 61.04C22.1718 62.1807 20.0425 63.4918 17.9892 64.9732C15.9359 66.4576 13.8066 68.1124 11.6012 69.9376L16.164 74.5005L24.3772 68.1124V61.04ZM79.1316 61.2681V68.1124L87.3448 74.5005L91.9076 70.1657C89.7022 68.1885 87.5729 66.4774 85.5196 65.0325C83.4663 63.5876 81.337 62.3328 79.1316 61.2681Z" fill="#262626"/>
</svg>
